<?xml version="1.0" standalone="no"?>
<!DOCTYPE svg PUBLIC "-//W3C//DTD SVG 1.1//EN" "http://www.w3.org/Graphics/SVG/1.1/DTD/svg11.dtd">
<svg xmlns="http://www.w3.org/2000/svg">
<metadata>Generated by Fontastic.me</metadata>
<defs>
<font id="untitled-font-1" horiz-adv-x="512">
<font-face font-family="untitled-font-1" units-per-em="512" ascent="480" descent="-32"/>
<missing-glyph horiz-adv-x="512" />

<glyph glyph-name="calendar" unicode="&#97;" d="M500 432l-88 0 0 69c0 6-5 11-11 11-6 0-11-5-11-11l0-69-268 0 0 69c0 6-5 11-11 11-6 0-11-5-11-11l0-69-88 0c-6 0-11-5-11-11l0-410c0-6 5-11 11-11l488 0c6 0 11 5 11 11l0 410c0 6-5 11-11 11z m-11-411l-466 0 0 269 466 0z m0 290l-466 0 0 99 77 0 0-37c0-6 5-11 11-11 6 0 11 5 11 11l0 37 268 0 0-37c0-6 5-11 11-11 6 0 11 5 11 11l0 37 77 0z"/>
<glyph glyph-name="channels" unicode="&#99;" d="M473 106l-434 0c-22 0-39 17-39 39l0 296c0 21 17 39 39 39l434 0c22 0 39-18 39-39l0-296c0-22-17-39-39-39z m-434 358c-13 0-23-10-23-23l0-296c0-13 10-24 23-24l434 0c13 0 23 11 23 24l0 296c0 13-10 23-23 23z m316-433l-198 0c-4 0-8 4-8 8 0 4 4 8 8 8l198 0c4 0 8-4 8-8 0-4-4-8-8-8z m-99 0c-4 0-8 4-8 8l0 75c0 4 4 7 8 7 4 0 8-3 8-7l0-75c0-4-4-8-8-8z"/>
<glyph glyph-name="clickouts" unicode="&#100;" d="M512 109c0-4-2-8-4-11l-94-94c-3-3-7-4-10-4-4 0-8 1-11 4l-111 112-100-101c-4-3-9-5-14-4-5 1-9 5-10 10l-157 472c-2 5-1 11 3 15 4 4 10 5 15 3l470-157c5-2 8-6 9-11 2-5 0-10-3-14l-98-98 111-112c2-2 4-6 4-10z"/>
<glyph glyph-name="increasedecrease" unicode="&#101;" d="M256 457l222-410-444 0z"/>
<glyph glyph-name="likes" unicode="&#102;" d="M5 355c3 4 5 6 9 8 4 1 7 2 11 2l127 0c-1 13-3 25-5 35-2 10-4 18-5 25-3 10-2 20 2 29 4 9 9 17 15 25 6 7 12 13 18 18 6 5 10 8 13 10 6 4 13 5 21 3 8-3 13-8 16-15l58-130 59 0c7 0 13-3 18-7 5-5 7-11 7-19l0-256c0-8-2-14-7-18-5-5-11-8-18-8l-236 0c-3 0-7 1-14 3-7 1-14 4-21 9-8 4-15 10-22 17-7 7-12 16-15 28l-36 220c-1 9 1 16 5 21z m414 15l74 0c5 0 9-2 13-5 4-4 5-8 5-13l0-283c0-5-1-9-5-13-4-3-8-5-13-5l-74 0c-5 0-10 2-13 5-4 4-6 8-6 13l0 283c0 5 2 9 6 13 3 3 8 5 13 5z"/>
<glyph glyph-name="menu" unicode="&#103;" d="M121 256c0 35-27 64-60 64-33 0-60-29-60-64 0-35 27-64 60-64 33 0 60 29 60 64z m0-192c0 35-27 64-60 64-33 0-60-29-60-64 0-35 27-64 60-64 33 0 60 29 60 64z m0 384c0 35-27 64-60 64-33 0-60-29-60-64 0-35 27-64 60-64 33 0 60 29 60 64z"/>
<glyph glyph-name="popular" unicode="&#104;" d="M22 65c3 0 6 1 8 3l168 172 119-102c3-3 6-3 10-3 3 1 6 3 7 6l135 263 13-61c2-5 7-9 12-9 1 0 2 0 3 0 6 2 10 8 9 14l-20 88c-1 3-3 6-6 8-3 1-7 1-10 0l-92-36c-6-2-9-9-6-15 2-6 9-9 15-6l59 23-125-246-116 99c-5 4-12 4-16 0l-175-179c-4-5-4-12 0-16 3-2 5-3 8-3z"/>
<glyph glyph-name="series" unicode="&#105;" d="M164 135c4-2 8-3 12-3 5 0 10 1 15 5l50 37c6 4 10 12 10 20 0 8-4 16-10 21l-50 37c-8 6-18 6-27 2-8-4-14-13-14-23l0-74c0-9 6-18 14-22z m4 96c0 3 1 6 4 8 1 0 2 0 4 0 1 0 3 0 4-1l51-37c2-2 3-4 3-7 0-2-1-5-3-6l-51-37c-2-2-5-2-8-1-3 2-4 4-4 7z m-49 229l0-63-64 0 0-64-55 0 0-280 392 0 0 64 56 0 0 63 63 0 0 280z m256-263l0-127-358 0 0 246 358 0z m55 0l0-63-38 0 0 199-319 0 0 47 357 0z m64 0l-46 0 0 200-312 0 0 46 358 0z"/>
<glyph glyph-name="videos" unicode="&#107;" d="M340 231l-128 64c-3 2-6 2-8 0-3-1-4-4-4-7l0-129c0-2 1-5 4-6 1-1 3-2 4-2 1 0 2 1 4 1l128 65c2 1 4 4 4 7 0 3-2 6-4 7z m-124-59l0 103 102-51z m264 309l-448 0c-18 0-32-14-32-32l0-370c0-18 14-32 32-32l448 0c18 0 32 14 32 32l0 370c0 18-14 32-32 32z m16-32l0-64-67 0 22 80 29 0c9 0 16-7 16-16z m-326 16l-21-80-72 0 22 80z m17 0l71 0-21-80-72 0z m88 0l71 0-21-80-72 0z m88 0l71 0-21-80-72 0z m-331 0l50 0-21-80-45 0 0 64c0 9 7 16 16 16z m448-402l-448 0c-9 0-16 7-16 16l0 290 480 0 0-290c0-9-7-16-16-16z"/>
<glyph glyph-name="watches" unicode="&#108;" d="M256 511c-117 0-216-72-256-174 40-102 139-174 256-174 116 0 215 72 255 174-40 102-139 174-255 174z m0-290c-65 0-117 52-117 116 0 64 52 116 117 116 64 0 116-52 116-116 0-64-52-116-116-116z m0 186c-39 0-70-31-70-70 0-38 31-69 70-69 38 0 69 31 69 69 0 39-31 70-69 70z"/>
<glyph glyph-name="wishlisted" unicode="&#109;" d="M512 373c0 76-62 138-138 138-50 0-94-26-118-66-24 40-68 66-118 66-76 0-138-62-138-138 0-42 18-79 47-104l196-196c4-3 8-5 13-5 5 0 9 2 12 5l196 196c29 25 48 62 48 104z"/>
<glyph glyph-name="advertising2" unicode="&#110;" d="M480 512c-18 0-32-14-32-32l0-3-387-121c-7 15-23 22-38 18-16-5-25-20-23-35l0-100c0-17 14-32 32-32 11 0 22 6 28 16l25-8 38-170c7-30 37-49 67-43 31 7 50 37 44 68l-23 105 235-74 0-2c0-18 15-33 33-33 18 0 33 15 33 33l0 381c0 18-14 32-32 32z m-430-273c-2-7-9-12-16-12-8 0-14 5-16 12l0 100c-2 6 0 14 6 18 6 4 13 4 19 0 6-4 9-12 7-18z m169-175c1-12-2-24-9-33-8-9-19-14-31-14-19 0-35 13-39 32l-35 160 87-29z m227 53l-380 120 0 104 380 119z m49-19c2-7 0-14-6-18-6-4-13-4-19 0-6 4-9 11-7 18l0 382c2 7 9 12 16 12 8 0 14-5 16-12z"/>
<glyph glyph-name="apps2" unicode="&#111;" d="M207 512l-177 0c-16 0-30-14-30-30l0-177c0-8 3-16 9-22 6-6 13-9 21-9l177 0c17 0 31 14 31 31l0 177c0 8-3 15-9 21-6 6-14 9-22 9z m12-207c0-7-5-12-12-12l-177 0c-6 0-12 5-12 12l0 177c0 6 6 12 12 12l177 0c7 0 12-6 12-12z m263 207l-177 0c-8 0-16-3-22-9-6-6-9-13-9-21l0-177c0-17 14-31 31-31l177 0c8 0 15 3 21 9 6 6 9 14 9 22l0 177c0 8-3 15-9 21-6 6-13 9-21 9z m12-207c0-7-6-12-12-12l-177 0c-7 0-12 5-12 12l0 177c0 6 5 12 12 12l177 0c6 0 12-6 12-12z m-287-67l-177 0c-8 0-15-3-21-9-6-6-9-14-9-22l0-177c0-8 3-15 9-21 6-6 13-9 21-9l177 0c8 0 16 3 22 9 6 6 9 13 9 21l0 177c0 17-14 31-31 31z m12-208c0-6-5-12-12-12l-177 0c-6 0-12 6-12 12l0 177c0 7 6 12 12 12l177 0c7 0 12-5 12-12z m284 98l-101 0 0 100c0 5-4 9-9 9-5 0-9-4-9-9l0-100-100 0c-5 0-9-4-9-9 0-5 4-9 9-9l100 0 0-101c0-5 4-9 9-9 5 0 9 4 9 9l0 101 101 0c5 0 9 4 9 9 0 5-4 9-9 9z"/>
<glyph glyph-name="key-1" unicode="&#112;" d="M362 512c-83 0-150-67-150-150 0-28 8-55 21-77l-228-228c-7-7-7-18 0-25 4-4 8-6 13-6 4 0 9 2 12 6l32 31 58-58c3-3 8-5 12-5 5 0 9 2 13 5 7 7 7 18 0 25l-58 58 19 19 40-40c4-3 8-5 13-5 4 0 9 2 12 5 7 7 7 18 0 25l-40 40 19 20 58-59c4-3 8-5 13-5 4 0 9 2 12 5 7 7 7 19 0 25l-58 59 80 80c27-28 65-45 107-45 83 0 150 67 150 150 0 83-67 150-150 150z m0-265c-63 0-115 52-115 115 0 63 52 115 115 115 63 0 115-52 115-115 0-63-52-115-115-115z"/>
<glyph glyph-name="like" unicode="&#113;" d="M475 438c-26 28-61 44-99 44-54 0-88-32-107-59-5-7-9-14-13-21-4 7-8 14-13 21-19 27-53 59-107 59-38 0-73-16-99-44-24-28-37-64-37-103 0-43 17-83 52-125 32-38 78-77 131-122 20-17 41-35 62-54l1 0c3-3 6-4 10-4 4 0 7 1 10 4l1 0c21 19 42 37 62 54 53 45 99 84 131 122 35 42 52 82 52 125 0 39-13 75-37 103z m-166-328c-17-14-34-29-53-45-19 16-36 31-53 45-104 89-173 148-173 225 0 31 11 61 30 83 19 22 46 34 76 34 41 0 68-25 83-46 13-19 20-39 23-46 2-6 8-10 14-10 6 0 12 4 14 10 3 7 10 27 23 46 15 21 42 46 83 46 30 0 57-12 76-34 19-22 30-52 30-83 0-77-69-136-173-225z"/>
<glyph glyph-name="thumb-up" unicode="&#114;" d="M390 12l-375 0c-8 0-15 6-15 15l0 240c0 8 7 15 15 15l161 0c63 0 70 47 73 119 2 47 4 99 52 99 16 0 29-5 40-15 21-22 21-59 21-75l0-2c0-29-3-55-6-73l53 0c57 0 103-46 103-103 0-1 0-2 0-2l-19-117c-17-70-65-101-103-101z m-360 30l360 0c26 0 61 24 73 77l19 114c-1 40-33 72-73 72l-71 0c-4 0-9 2-12 6-2 3-4 8-3 12 2 10 8 44 8 85l0 2c0 13 1 41-12 54-4 4-10 6-18 6-16 0-20-18-22-70-2-59-6-148-103-148l-146 0z m118-30l-133 0c-8 0-15 6-15 15l0 240c0 8 7 15 15 15l133 0c9 0 15-7 15-15l0-240c0-9-6-15-15-15z m-118 30l103 0 0 210-103 0z"/>
<glyph glyph-name="tick" unicode="&#115;" d="M505 437c-10 10-27 10-37 0l-306-307-118 118c-10 10-27 10-37 0-10-10-10-27 0-37l136-136c10-10 27-9 37 0l325 325c10 10 10 27 0 37z"/>
<glyph glyph-name="banner" unicode="&#116;" d="M509 343c0 1 1 1 1 2 0 0 1 0 1 1 0 0 0 1 1 1 0 1 0 2 0 2 0 0 0 1 0 1l0 136c0 5-4 9-9 9l-494 0c-4 0-7-2-8-5-2-3-1-6 1-9l47-63-47-63c-2-3-3-6-1-9 1-3 4-5 8-5l245 0-250-172c-1 0-1 0-1 0 0-1-1-1-1-2 0 0-1 0-1-1 0 0 0-1-1-1 0-1 0-2 0-2 0 0 0-1 0-1l0-136c0-5 4-9 9-9l494 0c4 0 7 2 8 5 2 3 1 6-1 9l-47 63 47 63c2 3 3 6 1 9-1 3-4 5-8 5l-245 0 250 172c1 0 1 0 1 0z m-23-189l-41-55c-2-3-2-7 0-10l41-55-469 0 0 120z m-258 17l-192 0 248 170 192 0z m267 187l-469 0 41 55c2 3 2 7 0 10l-41 55 469 0z"/>
<glyph glyph-name="users2" unicode="&#117;" d="M512 10c-1 89-56 168-139 199-3 1-6 1-8 0-64-49-153-49-217 0-3 1-6 1-8 0-29-11-55-28-76-49-41-40-64-94-64-151 0-5 4-9 9-9l494 0c5 0 9 4 9 9 0 0 0 1 0 1z m-495 7c2 49 22 96 58 130 18 19 41 35 66 45 68-50 161-50 230 0 72-29 120-97 124-174z m77 333c0-90 72-162 162-162 90 0 162 72 162 162 0 89-72 162-162 162-90 0-162-73-162-162z m307 0c0-80-65-145-145-145-80 0-145 65-145 145 0 80 65 145 145 145 80 0 145-65 145-145z"/>
<glyph glyph-name="notifications" unicode="&#118;" d="M497 497c-19 20-51 20-70 0-9-9-14-21-14-33-25 15-53 23-83 23-42 0-81-16-111-46l-54-54c-32-32-88-53-145-54-8 0-15-5-18-13-4-8-2-17 4-23l87-87c-26-32-23-80 7-110 16-16 38-25 59-25 18 0 36 6 51 18l87-87c4-4 10-6 15-6 3 0 5 1 8 2 8 3 13 10 13 18 1 57 22 113 54 145l54 54c53 53 60 133 23 194 12 0 24 5 33 14l0 0c20 19 20 51 0 70z m-383-383c-22 22-24 57-6 82l88-88c-25-18-60-16-82 6z m313 120l-55-55c-35-35-58-96-60-158l-291 291 0 1c62 1 123 24 158 59l55 55c26 26 60 40 96 40 37 0 71-14 97-40 0 0 0 0 0 0 0 0 0 0 0 0 53-53 53-140 0-193z m56 207c-12-11-30-11-42 0 0 0 0 0 0 0 0 0 0 0 0 0-11 12-11 30 0 42 6 6 14 9 21 9 8 0 15-3 21-9 11-12 11-30 0-42z"/>
<glyph glyph-name="close" unicode="&#119;" d="M512 18l-238 238 238 238-18 18-238-238-238 238-18-18 238-238-238-238 18-18 238 238 238-238z"/>
<glyph glyph-name="content2" unicode="&#120;" d="M256 0c-141 0-256 115-256 256 0 141 115 256 256 256 141 0 256-115 256-256 0-68-27-133-75-181-48-48-113-75-181-75z m0 495c-132 0-239-107-239-239 0-132 107-239 239-239 132 0 239 107 239 239 0 132-107 239-239 239z m-46-371c-14 0-24 10-24 24l0 216c0 14 10 24 24 24 5 0 11-2 15-5l145-107c7-4 11-12 11-20 0-8-5-16-12-20l-144-107c-5-3-10-5-15-5z m0 247c-4 0-7-3-7-7l0-216c0-4 3-7 7-7 1 0 3 0 4 1l146 108c2 1 3 3 3 6 0 2-1 5-3 6l-146 108c-1 0-3 0-4 0z"/>
<glyph glyph-name="dashboard2" unicode="&#121;" d="M228 0c-126 0-228 102-228 228 0 125 102 227 228 227 1 0 3-1 4-2 2-1 2-3 2-5l0-214 215 0c2 0 3-1 5-2 1-1 2-3 2-5 0-126-102-228-228-228z m-7 443c-116-4-208-100-207-217 1-117 95-211 212-212 117-1 213 91 217 207l-215 0c-4 1-6 3-7 7z m284-166l-221 0c-2-1-4 0-5 2-2 1-3 3-2 5l0 221c0 2 1 4 2 5 2 2 3 2 5 2 126 0 228-102 228-228 0-3-3-6-7-6z m-214 14l207 0c-4 113-94 203-207 207z"/>
<glyph glyph-name="pull" unicode="&#122;" d="M26 149l56 57c4 4 4 11 0 15-4 4-11 4-15 0l-64-64c-4-4-4-11 0-15l64-64c2-2 5-3 8-3 2 0 5 1 7 3 4 4 4 11 0 15z m337 288l-246 0c-6 0-10-4-10-10 0-6 4-11 10-11l246 0c70 0 128-57 128-128 0-71-58-128-128-128l-352 0c-6 0-11-5-11-11 0-6 5-10 11-10l352 0c82 0 149 67 149 149 0 82-67 149-149 149z"/>
<glyph glyph-name="push" unicode="&#65;" d="M0 277l175-102 102-175 235 512z m275-243l-85 145 52 52-11 11-52-52-145 85 426 196-167-167 11-11 167 167z m-21 209l-11 11 33 33 11-11z"/>
<glyph glyph-name="search" unicode="&#66;" d="M205 128c43 0 83 16 114 42l139-139c3-3 7-5 12-5 4 0 8 2 11 5 6 6 6 17 0 23l-139 139c26 31 42 71 42 114 0 99-80 179-179 179-99 0-179-80-179-179 0-99 80-179 179-179z m0 326c81 0 146-66 146-147 0-81-65-146-146-146-81 0-147 66-147 146 0 81 66 147 147 147z"/>
<glyph glyph-name="nav-arrow" unicode="&#67;" d="M506 270c0 0 0 0 0 0l-104 104c-8 8-21 8-29 0-7-8-7-20 0-28l71-70-424 0c-11 0-20-9-20-20 0-11 9-20 20-20l424 0-71-70c-7-8-7-20 0-28 8-8 21-8 29 0l104 104c0 0 0 0 0 0 8 8 8 20 0 28z"/>
<glyph glyph-name="delete" unicode="&#68;" d="M256 69c5 0 9 4 9 9l0 286c0 5-4 9-9 9-5 0-9-4-9-9l0-286c0-5 4-9 9-9z m-87 0c5 0 9 4 9 9l0 286c0 5-4 9-9 9-5 0-8-4-8-9l0-286c0-5 3-9 8-9z m174 0c5 0 8 4 8 9l0 286c0 5-3 9-8 9-5 0-9-4-9-9l0-286c0-5 4-9 9-9z m113 391l-122 0c-1 11-5 29-16 41-7 7-16 11-27 11l-87 0c-11 0-20-4-27-11-12-12-15-30-16-41l-105 0c-4 0-8-4-8-9 0-5 4-8 8-8l18 0 17-400c0-15 9-43 42-43l246 0c33 0 42 28 42 43l17 400 18 0c4 0 8 3 8 8 0 5-4 9-8 9z m-267 29c4 4 9 6 15 6l87 0c6 0 11-2 15-6 7-7 9-20 10-29l-138 0c1 9 4 22 11 29z m215-445c0-3-1-27-25-27l-246 0c-23 0-25 24-25 27l-17 399 330 0z"/>
<glyph glyph-name="edit" unicode="&#69;" d="M16 52c1 0 1 0 2 0l132 22c0 0 1 0 1 0 1 0 1 0 1 0 1 1 2 2 3 2 0 0 0 0 0 1l305 306c2 2 3 5 3 8 0 3-1 5-3 7l-110 111c-4 4-10 4-14 0l-305-307c-1 0-1 0-1 0 0-1-1-2-2-3 0 0 0-1 0-1 0 0 0-1 0-2l-22-132c-1-4 0-7 3-9 2-2 4-3 7-3z m327 435l96-96-291-293-96 97z m-298-314l66-66 16-16-99-17z m452-152l-482 0c-6 0-10-5-10-11 0-5 4-10 10-10l482 0c6 0 10 5 10 10 0 6-4 11-10 11z"/>
<glyph glyph-name="star" unicode="&#70;" d="M473 345l-125 9c-2 0-5 2-6 4l-47 116c-7 16-22 26-39 26-17 0-32-10-39-26l-47-116c-1-3-4-4-6-4l-125-9c-17-1-31-12-37-29-5-16-1-33 13-45l96-80c2-1 3-4 3-6l-30-121c-3-12-1-25 7-35 8-11 20-17 33-17 8 0 15 3 22 7l105 66c2 1 5 1 7 0l107-66c6-4 14-7 22-7 12 0 24 6 32 16 8 10 11 23 8 36l-30 120c0 3 0 6 2 7l98 80c14 12 18 29 13 45-6 17-20 28-37 29z m8-54l-98-80c-9-8-14-20-11-33l30-120c2-7-1-12-3-14-3-4-7-6-12-6-3 0-5 1-8 2l-107 66c-5 3-11 5-17 5-6 0-12-2-17-5l-106-66c-7-4-16-2-21 4-2 3-4 7-2 14l29 121c3 12-1 24-10 32l-97 80c-7 6-5 15-4 17 0 3 4 11 14 11l125 9c12 1 23 9 27 20l48 116c4 9 13 10 15 10 3 0 11-1 15-10l48-116c5-11 15-19 28-20l125-9c9 0 13-8 14-11 0-2 2-11-5-17z"/>
<glyph glyph-name="testdevices" unicode="&#71;" d="M358 512l-204 0c-24 0-43-19-43-43l0-426c0-24 19-43 43-43l204 0c24 0 43 19 43 43l0 426c0 24-19 43-43 43z m-230-77l256 0 0-341-256 0z m26 60l204 0c7 0 14-3 19-8 4-4 7-11 7-18l0-17-256 0 0 17c0 14 11 26 26 26z m204-478l-204 0c-15 0-26 12-26 26l0 34 256 0 0-34c0-14-11-26-26-26z"/>
</font>
</defs>
</svg>
